<svg xmlns="http://www.w3.org/2000/svg" width="24.343" height="18.013" viewBox="0 0 24.343 18.013">
  <path id="truck-svgrepo-com" d="M1.384,13A1.392,1.392,0,0,0,0,14.384V27.119a1.458,1.458,0,0,0,1.461,1.461H3.454a2.915,2.915,0,0,0,5.751,0h4.5a1.369,1.369,0,0,0,.928-.38,1.45,1.45,0,0,0,.943.38h.532a2.921,2.921,0,1,0,0-.974h-.532a.542.542,0,0,1-.335-.167.485.485,0,0,1-.152-.319v-9.25a.66.66,0,0,1,.487-.487h3.895a2.175,2.175,0,0,1,1.293.852c0,.006.011.01.015.015l.076.106H18.5a1.463,1.463,0,0,0-1.461,1.461v1.947A1.509,1.509,0,0,0,18.5,23.224h4.868v3.895a.66.66,0,0,1-.487.487h-.974v.974h.974a1.458,1.458,0,0,0,1.461-1.461V22.433a3.885,3.885,0,0,0-.776-2.1h-.015l-2.008-2.678V17.64l-.015-.015a2.8,2.8,0,0,0-2.054-1.217H15.579a1.428,1.428,0,0,0-.487.091V14.415A1.4,1.4,0,0,0,13.723,13Zm0,.974H13.723a.429.429,0,0,1,.4.441v12.78a.408.408,0,0,1-.411.411H9.2a2.915,2.915,0,0,0-5.751,0H1.461a.663.663,0,0,1-.487-.487V14.384A.407.407,0,0,1,1.384,13.974ZM18.5,19.329h3.088l1.187,1.582a4.839,4.839,0,0,1,.532,1.339H18.5a.6.6,0,0,1-.487-.487V19.816A.563.563,0,0,1,18.5,19.329ZM6.329,26.145a1.947,1.947,0,1,1-1.947,1.947A1.939,1.939,0,0,1,6.329,26.145Zm12.658,0a1.947,1.947,0,1,1-1.947,1.947A1.939,1.939,0,0,1,18.987,26.145Z" transform="translate(0 -13)" fill="#797d83"/>
</svg>
